PathFileType	4	(X/Y/Z)	C:\Users\Basilio\Documents\Thesis Gigler\squatting_fais\c3dfiles\076\SJ_pre2\markers_experimental.trc
DataRate	CameraRate	NumFrames	NumMarkers	Units	OrigDataRate	OrigDataStartFrame	OrigNumFrames
200.000000	200.000000	4	61	mm	200.000000	1274	1456
Frame#	Time	FHD			LBHD			RBHD			C7			T10			CLAV			LSHO			LUUPA			LMUPA			LDUPA			LLEP			LMEP			LRAD			LUL			LRFIN			RSHO			RUPA1			RMUPA			RDUPA			RLEP			RMEP			RRAD			RUL			RUFIN			LASI			RASI			USACR			LSACR			RSACR			LTHI1			LTHI2			LTHI3			LTHI4			LLFC			LMFC			LTIB1			LTIB2			LTIB3			LTIB4			LLMAL			LMMAL			LHEE			LMT1			LMT2			LMT5			RTHI			RTHI2			RTHI3			RTHI4			RLFC			RMFC			RTIB1			RTIB2			RTIB3			RTIB4			RLMAL			RMMAL			RHEE			RMT1			RMT2			RMT5			
		X1	Y1	Z1	X2	Y2	Z2	X3	Y3	Z3	X4	Y4	Z4	X5	Y5	Z5	X6	Y6	Z6	X7	Y7	Z7	X8	Y8	Z8	X9	Y9	Z9	X10	Y10	Z10	X11	Y11	Z11	X12	Y12	Z12	X13	Y13	Z13	X14	Y14	Z14	X15	Y15	Z15	X16	Y16	Z16	X17	Y17	Z17	X18	Y18	Z18	X19	Y19	Z19	X20	Y20	Z20	X21	Y21	Z21	X22	Y22	Z22	X23	Y23	Z23	X24	Y24	Z24	X25	Y25	Z25	X26	Y26	Z26	X27	Y27	Z27	X28	Y28	Z28	X29	Y29	Z29	X30	Y30	Z30	X31	Y31	Z31	X32	Y32	Z32	X33	Y33	Z33	X34	Y34	Z34	X35	Y35	Z35	X36	Y36	Z36	X37	Y37	Z37	X38	Y38	Z38	X39	Y39	Z39	X40	Y40	Z40	X41	Y41	Z41	X42	Y42	Z42	X43	Y43	Z43	X44	Y44	Z44	X45	Y45	Z45	X46	Y46	Z46	X47	Y47	Z47	X48	Y48	Z48	X49	Y49	Z49	X50	Y50	Z50	X51	Y51	Z51	X52	Y52	Z52	X53	Y53	Z53	X54	Y54	Z54	X55	Y55	Z55	X56	Y56	Z56	X57	Y57	Z57	X58	Y58	Z58	X59	Y59	Z59	X60	Y60	Z60	X61	Y61	Z61	

1275	6.37	-86.67134857177736	1488.869018554688	-956.0129394531252	-235.8247985839844	1525.337158203125	-1057.637573242188	-222.1754760742188	1536.71728515625	-906.1182861328127	-357.8960266113282	1433.034301757813	-975.1968994140627	-427.9628906250001	1106.276123046875	-981.1109619140627	-241.8651123046876	1325.237548828125	-966.2007446289065	-296.5740051269532	1357.712768554688	-1143.388061523438	-303.0473022460938	1204.724487304688	-1273.43310546875	-294.0492248535157	1159.529052734375	-1253.675048828125	-311.1654357910157	1145.454956054688	-1310.003662109375	-323.3423156738282	1098.188720703125	-1339.513061523438	-408.3975219726564	1095.074584960938	-1315.701293945313	-365.4920654296876	928.5443115234377	-1170.652465820313	-321.5397644042969	944.7735595703127	-1139.757568359375	-317.7767333984376	893.6756591796877	-1199.3388671875	-313.5426635742188	1359.438110351563	-806.507507324219	-371.2464599609376	1225.624877929688	-666.1857910156251	-342.8104248046876	1184.06396484375	-667.1757812500001	-385.0256652832032	1167.755859375	-626.8562011718751	-386.1494445800782	1098.0830078125	-605.2796020507814	-459.3075256347657	1090.947875976563	-654.9569702148439	-387.9321289062501	926.1534423828127	-776.6265869140627	-337.2056579589844	941.1649169921877	-790.7456054687502	-343.1902770996094	896.315368652344	-735.9340820312501	-262.4146118164063	916.2402954101565	-1063.948120117188	-285.3122558593751	910.2940063476565	-859.2507934570315	-435.3224487304689	994.8284301757815	-980.2979125976565	-441.477996826172	967.708923339844	-1010.848693847656	-447.4125976562501	964.3021240234377	-954.601501464844	-350.2279052734376	769.5010375976565	-1142.7412109375	-328.7149963378907	687.2770385742189	-1139.36279296875	-280.5064697265626	685.6966552734376	-1125.921752929688	-363.0632629394532	638.2915649414064	-1127.62890625	-377.7137451171876	475.8160400390626	-1106.258422851563	-347.7669982910157	465.9812011718751	-991.2285766601565	-340.0831909179688	331.2451477050782	-1041.370849609375	-359.7423706054688	278.5242309570313	-1109.613403320313	-330.9662170410157	282.2297058105469	-1072.845703125	-338.7047729492188	203.8442993164063	-1042.611572265625	-388.2323303222657	77.60617065429689	-1096.754638671875	-356.5641479492188	88.60486602783205	-1017.676330566406	-437.0210266113282	42.55920028686524	-1046.7421875	-225.6119537353516	53.08476638793947	-1053.760864257813	-225.2843475341797	53.70534515380861	-1093.213500976563	-249.7618713378907	44.15536880493165	-1141.753540039063	-375.1457824707032	679.5838623046876	-768.5716552734377	-334.1053771972657	630.4816284179689	-745.4531860351564	-299.5115051269532	636.1660766601564	-746.4223022460939	-349.1231689453126	549.2093505859376	-752.9926757812501	-339.8887634277344	491.9967651367189	-744.0996704101564	-280.8333129882813	470.4945373535157	-843.5018310546877	-308.3368530273438	354.9066467285157	-731.7865600585939	-392.6157226562501	286.2488098144532	-719.4046020507814	-346.2653808593751	278.0126037597657	-715.6564331054689	-329.9369201660157	227.1647644042969	-737.8895874023439	-415.7494506835939	95.71616363525392	-709.4825439453126	-369.2512512207032	100.1411590576172	-782.591491699219	-456.278289794922	64.2832717895508	-769.9890747070315	-256.4103088378907	51.7086753845215	-720.2927856445314	-265.3295898437501	58.76074981689455	-676.3137207031251	-309.2065429687501	39.26752471923829	-635.4396972656251	
1276	6.375	-86.77568817138673	1488.9111328125	-956.0502929687502	-235.8271942138672	1525.183837890625	-1057.856567382813	-222.2916870117188	1536.863159179688	-906.322448730469	-358.0055541992188	1433.212890625	-975.4368896484377	-428.1681213378907	1106.350341796875	-981.498474121094	-241.9957885742188	1325.309448242188	-966.176452636719	-296.3811950683594	1357.81005859375	-1143.4677734375	-302.2511596679688	1204.744750976563	-1273.526123046875	-293.2838439941407	1159.551635742188	-1253.601928710938	-310.5766906738282	1145.55078125	-1310.0888671875	-323.0976257324219	1098.263061523438	-1339.872802734375	-407.5953979492189	1095.088745117188	-1316.094360351563	-365.3171997070313	928.6029052734377	-1170.822631835938	-321.4458007812501	944.7758789062502	-1139.847900390625	-317.4784851074219	893.634948730469	-1199.343505859375	-313.9863586425782	1359.697631835938	-806.5903320312502	-372.0582275390626	1226.104370117188	-666.3890380859376	-343.7973022460938	1184.370483398438	-667.3660888671876	-386.0762023925782	1168.123779296875	-627.1387939453126	-387.3555297851564	1098.489135742188	-605.4230957031251	-460.3789367675782	1091.350952148438	-655.4650878906251	-388.6143188476564	926.571228027344	-776.7967529296877	-337.7018127441407	941.4830322265627	-790.702331542969	-343.8520812988282	896.6787719726565	-735.9868164062501	-262.5996093750001	916.1208496093752	-1063.810791015625	-286.1473693847657	909.7790527343752	-859.2342529296877	-435.5020751953126	994.9173583984377	-980.597106933594	-441.9628295898439	968.190612792969	-1011.165466308594	-447.6648254394532	964.4990844726565	-954.8662719726565	-349.6111145019532	769.2380371093752	-1142.358276367188	-328.8037719726563	687.2786254882814	-1139.446899414063	-280.6379089355469	685.6271362304689	-1125.864624023438	-363.2247314453126	638.3242797851564	-1127.655029296875	-377.7912292480469	475.8150024414064	-1106.241943359375	-347.9569091796876	466.003143310547	-991.1487426757815	-340.0858764648438	331.1933288574219	-1041.333129882813	-359.6932067871094	278.5300903320313	-1109.607421875	-330.9415283203126	282.1706237792969	-1072.807250976563	-338.5274963378907	203.7531890869141	-1042.332641601563	-388.2553100585939	77.60232543945314	-1096.755493164063	-356.5803527832032	88.5987014770508	-1017.665771484375	-437.0957946777345	42.63835144042969	-1046.725463867188	-225.6598663330079	53.05211639404298	-1053.778930664063	-225.3146514892579	53.68352127075197	-1093.249633789063	-249.760971069336	44.17011260986329	-1141.710571289063	-374.7982482910157	679.7734375000001	-768.232360839844	-333.5621948242188	630.7424926757814	-745.4116210937501	-299.0225830078126	636.6305541992189	-746.2395019531251	-348.1532287597657	549.5954589843751	-752.7914428710939	-338.9284362792969	492.268524169922	-743.9425659179689	-279.5031738281251	470.7910461425782	-843.3414306640627	-307.5975036621094	355.1362609863282	-732.0266723632814	-391.8455200195314	286.6861267089844	-719.6361694335939	-345.6647949218751	278.1030883789063	-716.1864013671876	-329.4268188476563	227.2134094238282	-738.4045410156251	-415.5213928222657	96.1419372558594	-710.2109985351564	-368.9314575195313	100.5321578979492	-783.375915527344	-455.9070129394532	64.55846405029298	-770.8529052734377	-255.4955596923829	52.09506988525392	-720.9926147460939	-265.1710510253907	59.02672576904298	-676.8936767578126	-309.2410583496094	39.79379653930665	-636.0925903320314	
1277	6.38	-86.8499221801758	1488.958129882813	-956.0461425781252	-235.8727264404297	1525.208251953125	-1057.980224609375	-222.4453887939454	1537.161010742188	-906.519470214844	-358.1188964843751	1433.329956054688	-975.6995849609377	-428.3674926757814	1106.423828125	-981.7906494140627	-242.2048645019532	1325.380981445313	-966.0919189453127	-296.2246704101563	1357.79150390625	-1143.466186523438	-301.5099792480469	1204.780639648438	-1273.59814453125	-293.5762329101563	1159.810180664063	-1253.80859375	-309.8463745117188	1145.54296875	-1310.106201171875	-321.9218139648438	1098.087646484375	-1339.697631835938	-406.8522033691407	1095.050048828125	-1316.689819335938	-365.1856689453126	928.5772094726565	-1170.964965820313	-321.5055236816407	944.7412109375002	-1139.829711914063	-317.2869567871094	893.632751464844	-1199.33203125	-314.3882141113282	1359.957641601563	-806.7070922851565	-373.1066589355469	1226.375122070313	-666.5988159179689	-344.7989196777344	1184.615478515625	-667.4916992187501	-387.098114013672	1168.508056640625	-627.2668457031251	-388.4971618652345	1098.874877929688	-605.6552734375001	-461.3419494628907	1091.84130859375	-655.7559814453126	-389.2444152832032	926.8563232421877	-776.8735961914065	-338.2129211425782	941.8342285156252	-790.7114257812502	-344.6102905273438	897.0281372070315	-736.0255126953126	-262.7313842773438	916.1006469726565	-1063.60009765625	-286.6648254394532	909.880065917969	-859.1112060546877	-435.7144470214845	995.0618896484377	-980.896423339844	-442.1096496582032	968.3647460937502	-1011.418640136719	-447.847137451172	964.6206665039065	-955.1384887695315	-349.8404541015626	769.2066650390627	-1142.378662109375	-328.8033142089844	687.2468261718751	-1139.271850585938	-280.7951965332032	685.6169433593751	-1125.702392578125	-363.2216491699219	638.2042846679689	-1127.571899414063	-377.8110046386719	475.7568359375001	-1106.211303710938	-348.1445312500001	465.9807739257814	-991.0422363281252	-340.1524963378907	331.1496582031251	-1041.186645507813	-359.7182617187501	278.4526672363282	-1109.543090820313	-330.8291625976563	282.3067321777344	-1073.151977539063	-338.5497131347657	203.7039184570313	-1042.345825195313	-388.2962341308595	77.62790679931642	-1096.746826171875	-356.6264038085938	88.54840087890626	-1017.643005371094	-437.1594848632814	42.64250946044923	-1046.704223632813	-225.6951141357422	53.0782814025879	-1053.795288085938	-225.2881469726563	53.74316406250001	-1093.164306640625	-249.7621154785157	44.18235015869141	-1141.746215820313	-374.4674682617188	679.8502807617189	-767.9761352539064	-332.9715881347657	630.9318237304689	-745.2669677734376	-298.4842224121094	637.0584106445314	-746.0943603515626	-347.3163146972657	549.9984130859376	-752.5934448242189	-338.0672912597657	492.4411621093751	-743.7951660156251	-278.7498779296876	471.1235656738282	-843.4202880859377	-306.8798217773438	355.2641296386719	-732.3695068359376	-391.247772216797	286.8789062500001	-719.7377319335939	-345.1452331542969	278.2036437988282	-716.7013549804689	-328.9069519042969	227.4166870117188	-739.0337524414064	-415.3245849609376	96.41104888916018	-710.9506835937501	-368.0990905761719	100.5703048706055	-783.9843750000002	-455.3860168457032	64.59462738037111	-771.7649536132815	-254.7539825439454	52.31429290771486	-721.6742553710939	-264.8951110839844	59.38779449462892	-677.6026000976564	-309.0821533203126	40.47056198120118	-636.8009033203126	
1278	6.385	-86.98266601562501	1489.017211914063	-956.0108032226565	-236.046371459961	1524.972290039063	-1057.950439453125	-222.5906219482422	1537.365966796875	-906.5777587890627	-358.3057861328126	1433.506958007813	-975.8274536132815	-428.4944763183595	1106.5390625	-982.0166625976565	-242.4496307373047	1325.495361328125	-966.090026855469	-296.0452575683594	1357.836547851563	-1143.49560546875	-301.3712768554688	1204.41943359375	-1272.756103515625	-292.2449645996094	1159.557861328125	-1253.468872070313	-309.1958007812501	1145.51416015625	-1310.057861328125	-321.4150390625001	1098.027954101563	-1339.745727539063	-406.1531982421876	1095.218505859375	-1316.603637695313	-365.1634216308594	928.5877685546877	-1171.04638671875	-321.4530639648438	944.7388305664065	-1139.850830078125	-317.0722961425782	893.6004638671877	-1199.275146484375	-314.8336486816407	1360.160766601563	-806.7528076171877	-373.9675598144532	1226.731567382813	-666.7045288085939	-345.8044128417969	1185.061157226563	-667.5128784179689	-388.2273559570314	1168.911010742188	-627.4574584960939	-389.6960449218751	1099.485473632813	-605.8753662109376	-462.2684631347657	1092.309936523438	-656.2728881835939	-389.9223632812501	927.164245605469	-776.9444580078127	-338.8314208984376	942.136169433594	-790.633239746094	-345.3789978027344	897.3413085937502	-735.9785766601564	-262.8293457031251	916.0379638671877	-1063.44091796875	-287.0114135742188	910.0968017578127	-858.988220214844	-435.7730407714845	995.228210449219	-981.1173095703127	-442.1730346679689	968.4187011718752	-1011.627136230469	-448.0578002929689	964.7939453125002	-955.3356933593752	-349.9223937988282	769.206481933594	-1142.27392578125	-328.9871215820313	687.2682495117189	-1139.25634765625	-280.8797302246094	685.5485229492189	-1125.596923828125	-363.3607177734376	638.1894531250001	-1127.558959960938	-377.8520812988282	475.7803344726564	-1106.164184570313	-348.2332153320313	466.0077209472657	-990.9116821289065	-340.2202758789063	331.1244812011719	-1041.102416992188	-359.8157043457032	278.5008850097657	-1109.474487304688	-330.8610229492188	282.3212890625001	-1073.11279296875	-338.8358459472657	203.7966461181641	-1042.471435546875	-388.2588195800782	77.61907196044923	-1096.707763671875	-356.6134948730469	88.56909942626955	-1017.628540039063	-437.182342529297	42.66732788085938	-1046.699462890625	-225.7375640869141	53.16710662841798	-1053.724975585938	-225.2307281494141	53.75070571899415	-1093.136962890625	-248.7762298583985	43.58378982543946	-1141.351806640625	-374.0763549804688	680.0648193359376	-767.7849121093751	-332.4514770507813	631.3357543945314	-744.9778442382814	-297.9592895507813	637.5621337890626	-745.6507568359376	-346.6465148925782	550.2686767578126	-752.4390258789064	-337.4206848144532	492.6022338867189	-743.7100830078126	-278.1164245605469	471.4541320800782	-843.5007324218752	-306.3296813964844	355.2307739257813	-732.7660522460939	-390.7993774414064	286.8809204101563	-720.0118408203126	-344.5596923828126	278.2248535156251	-717.2520141601564	-328.4283142089844	227.5307769775391	-739.7244262695314	-415.0648193359376	96.74282073974612	-711.6639404296876	-368.4255676269532	101.0780258178711	-784.8364257812502	-455.094207763672	64.64713287353517	-772.5015258789065	-254.4718933105469	52.46969985961915	-722.5326538085939	-264.4148864746094	60.18666839599611	-678.3627319335939	-308.7544860839844	41.30041122436524	-637.5851440429689	
